<svg xmlns="http://www.w3.org/2000/svg" xmlns:xlink="http://www.w3.org/1999/xlink" version="1.1" id="Layer_1" x="0px" y="0px" width="100px" height="100px" viewBox="0 0 100 100" enable-background="new 0 0 100 100" xml:space="preserve">
<g>
	<path d="M27.813,61.418c-0.756,0.316-1.205,1.135-1.028,1.965c0.176,0.828,0.917,1.393,1.734,1.375   C28.204,63.676,27.966,62.561,27.813,61.418L27.813,61.418z M29.057,66.361c-0.664,0.479-0.916,1.375-0.558,2.145   c0.358,0.768,1.208,1.152,2.001,0.949C29.945,68.465,29.461,67.434,29.057,66.361L29.057,66.361z M31.386,70.895   c-0.542,0.613-0.586,1.547-0.063,2.215c0.523,0.67,1.439,0.853,2.167,0.476C32.722,72.742,32.019,71.844,31.386,70.895   L31.386,70.895z M34.672,74.789c-0.39,0.721-0.225,1.639,0.436,2.174s1.592,0.504,2.217-0.025   C36.385,76.287,35.5,75.568,34.672,74.789L34.672,74.789z M38.749,77.846c-0.215,0.791,0.152,1.646,0.915,2.019   c0.761,0.37,1.662,0.137,2.151-0.519C40.75,78.922,39.726,78.422,38.749,77.846L38.749,77.846z M43.41,79.91   c-0.032,0.816,0.519,1.566,1.345,1.758c0.827,0.191,1.653-0.242,1.981-0.992C45.597,80.504,44.486,80.246,43.41,79.91L43.41,79.91z    M48.415,80.865c0.15,0.805,0.858,1.416,1.706,1.416c0.85,0,1.557-0.611,1.708-1.416c-0.69,0.051-1.392,0.072-2.099,0.059   C49.289,80.916,48.85,80.896,48.415,80.865L48.415,80.865z M53.509,80.678c0.328,0.748,1.153,1.182,1.979,0.99   s1.377-0.941,1.345-1.756C55.757,80.246,54.646,80.506,53.509,80.678L53.509,80.678z M58.43,79.348   c0.488,0.652,1.389,0.889,2.15,0.517c0.762-0.371,1.131-1.226,0.915-2.019C60.518,78.422,59.492,78.922,58.43,79.348L58.43,79.348z    M62.919,76.938c0.625,0.531,1.558,0.562,2.218,0.025c0.659-0.533,0.825-1.453,0.436-2.174   C64.744,75.57,63.857,76.289,62.919,76.938L62.919,76.938z M66.755,73.584c0.729,0.377,1.644,0.195,2.167-0.473   c0.521-0.668,0.479-1.601-0.062-2.215C68.227,71.846,67.521,72.746,66.755,73.584L66.755,73.584z M69.744,69.457   c0.793,0.201,1.643-0.184,2-0.949c0.357-0.771,0.105-1.666-0.557-2.145C70.784,67.438,70.301,68.469,69.744,69.457L69.744,69.457z    M71.725,64.76c0.816,0.016,1.558-0.547,1.733-1.377s-0.271-1.646-1.026-1.963C72.277,62.562,72.042,63.678,71.725,64.76   L71.725,64.76z M36.887,18.272c0,7.278,5.901,13.179,13.18,13.179c7.281,0,13.18-5.9,13.18-13.179c0-0.174-0.003-0.348-0.011-0.521   c-7.1-0.005-12.886-5.625-13.179-12.66c-0.273,7.035-6.06,12.655-13.16,12.66C36.89,17.924,36.887,18.098,36.887,18.272   L36.887,18.272z M24.417,59.99c-0.566,6.465,0.432,14.457,4.796,24.402c1.138,2.592,2.687,5.057,4.567,7.389   c0,0,5.172,3.061,16.291,3.061c11.113,0,16.285-3.061,16.285-3.061c1.879-2.332,3.428-4.797,4.565-7.389   c4.364-9.943,5.363-17.937,4.797-24.4c-0.686,0.26-1.39,0.51-2.112,0.746c0.832,0.674,1.265,1.777,1.024,2.895   c-0.245,1.152-1.134,2.002-2.211,2.25c0.71,0.848,0.91,2.062,0.411,3.129c-0.498,1.066-1.557,1.695-2.662,1.697   c0.502,0.984,0.424,2.213-0.302,3.141s-1.897,1.301-2.976,1.051c0.268,1.074-0.084,2.254-1,2.996   c-0.916,0.74-2.144,0.838-3.136,0.355c0.019,1.105-0.592,2.174-1.649,2.689c-1.06,0.518-2.276,0.34-3.135-0.357   c-0.23,1.082-1.064,1.986-2.214,2.252c-1.147,0.266-2.295-0.182-2.975-1.053c-0.468,1.002-1.483,1.693-2.662,1.693   c-1.177,0-2.194-0.691-2.661-1.693c-0.681,0.871-1.827,1.318-2.975,1.053s-1.982-1.17-2.212-2.252   c-0.859,0.697-2.077,0.875-3.135,0.357c-1.059-0.517-1.668-1.584-1.649-2.689c-0.994,0.482-2.22,0.385-3.136-0.357   c-0.916-0.74-1.269-1.92-1.001-2.994c-1.077,0.25-2.25-0.123-2.975-1.051s-0.804-2.156-0.302-3.143   c-1.106,0-2.164-0.629-2.662-1.695c-0.499-1.066-0.299-2.281,0.412-3.131c-1.077-0.248-1.967-1.098-2.212-2.25   c-0.235-1.104,0.184-2.191,0.994-2.867C25.856,60.518,25.126,60.26,24.417,59.99L24.417,59.99z M27.359,48.34   c-0.884,2.111-1.685,4.451-2.249,7.062c-0.158,0.729-0.298,1.481-0.416,2.262c6.91,2.566,15.746,4.105,25.374,4.105   c9.627,0,18.461-1.539,25.372-4.105c-0.119-0.779-0.258-1.531-0.416-2.262c-0.564-2.613-1.366-4.956-2.252-7.066   c-12.51-1.113-22.16-7.122-22.697-14.462C49.571,41.225,39.896,47.24,27.359,48.34L27.359,48.34z M31.046,19.461   c0-10.539,8.5-19.091,19.017-19.178C60.588,0.37,69.087,8.922,69.087,19.461c0,2.338-0.416,4.58-1.183,6.652l-0.096,0.249   c-0.363,1.042-1.479,5.324,1.743,12.035c3.831,7.982,13.876,21.305,2.771,46.609c-1.2,2.736-2.825,5.312-4.777,7.738   c0.636,0.518,0.94,1.08,0.94,1.662c0,2.857-8.245,5.178-18.417,5.178c-10.18,0-18.424-2.32-18.424-5.178   c0-0.582,0.305-1.145,0.94-1.662c-1.953-2.426-3.577-5.002-4.777-7.738c-11.161-25.428-0.957-38.84,2.772-46.609   c3.222-6.711,2.107-10.994,1.744-12.035l-0.096-0.249C31.463,24.041,31.046,21.799,31.046,19.461L31.046,19.461z M47.577,54.584   c0-1.404,1.139-2.543,2.542-2.543c1.404,0,2.544,1.139,2.544,2.543s-1.14,2.543-2.544,2.543   C48.716,57.127,47.577,55.988,47.577,54.584L47.577,54.584z M47.577,44.457c0-1.404,1.139-2.543,2.542-2.543   c1.404,0,2.544,1.139,2.544,2.543s-1.14,2.542-2.544,2.542C48.716,46.999,47.577,45.861,47.577,44.457L47.577,44.457z    M55.836,19.324c0,0.851-0.688,1.541-1.538,1.541s-1.539-0.69-1.539-1.541c0-0.85,0.688-1.539,1.539-1.539   C55.146,17.785,55.836,18.474,55.836,19.324L55.836,19.324z M50.089,25.783c0.193-0.314,0.79-0.583,2.099-0.18   c0.586,0.181,1.006-0.043,0.994-0.029c-0.149,0.128-0.844,0.648-0.844,0.648l-0.004,0.177c0,0.852-0.997,1.544-2.245,1.548   c-1.249-0.004-2.259-0.696-2.259-1.548l-0.005-0.177c0,0-0.693-0.52-0.842-0.648c-0.012-0.014,0.407,0.21,0.995,0.029   C49.284,25.201,49.895,25.469,50.089,25.783L50.089,25.783z M44.11,19.324c0-0.85,0.689-1.539,1.54-1.539s1.54,0.689,1.54,1.539   c0,0.851-0.689,1.541-1.54,1.541S44.11,20.174,44.11,19.324L44.11,19.324z"/>
</g>
</svg>